<svg width="80%" height="80%" viewBox="0 0 48 48" fill="none" xmlns="http://www.w3.org/2000/svg">
<path d="M18 44H30C40 44 44 40 44 30V18C44 8 40 4 30 4H18C8 4 4 8 4 18V30C4 40 8 44 18 44Z" stroke="var(--dark-100)" stroke-width="3" stroke-linecap="round" stroke-linejoin="round"/>
<path d="M18 20C20.2091 20 22 18.2091 22 16C22 13.7909 20.2091 12 18 12C15.7909 12 14 13.7909 14 16C14 18.2091 15.7909 20 18 20Z" stroke="var(--dark-100)" stroke-width="3" stroke-linecap="round" stroke-linejoin="round"/>
<path d="M5.33997 37.9001L15.2 31.2801C16.78 30.2201 19.06 30.3401 20.48 31.5601L21.14 32.1401C22.7 33.4801 25.22 33.4801 26.78 32.1401L35.1 25.0001C36.66 23.6601 39.18 23.6601 40.74 25.0001L44 27.8001" stroke="var(--dark-40)" stroke-width="3" stroke-linecap="round" stroke-linejoin="round"/>
</svg>
